<?xml version="1.0" standalone="no"?>
<!DOCTYPE svg PUBLIC "-//W3C//DTD SVG 20010904//EN"
 "http://www.w3.org/TR/2001/REC-SVG-20010904/DTD/svg10.dtd">
<svg version="1.0" xmlns="http://www.w3.org/2000/svg"
 width="1000.000000pt" height="1000.000000pt" viewBox="0 0 1000.000000 1000.000000"
 preserveAspectRatio="xMidYMid meet">
<metadata>
Created by potrace 1.11, written by Peter Selinger 2001-2013
</metadata>
<g transform="translate(0.000000,1000.000000) scale(0.100000,-0.100000)"
fill="#000000" stroke="none">
<path d="M6830 8700 c12 -8 12 -10 1 -10 -8 0 -12 -2 -9 -5 3 -3 13 -2 22 1
14 5 15 9 4 15 -7 5 -17 9 -23 9 -5 0 -3 -5 5 -10z"/>
<path d="M6860 8675 c-9 -10 -9 -15 -1 -15 6 0 11 5 11 11 0 5 5 7 12 3 7 -4
8 -3 4 4 -9 15 -11 15 -26 -3z"/>
<path d="M6930 8660 c8 -5 20 -10 25 -10 6 0 3 5 -5 10 -8 5 -19 10 -25 10 -5
0 -3 -5 5 -10z"/>
<path d="M6970 8645 c0 -4 60 -35 67 -35 1 0 3 4 3 8 0 5 -16 13 -35 19 -19 6
-35 10 -35 8z"/>
<path d="M7068 8603 c6 -2 10 -9 7 -14 -4 -5 1 -6 9 -3 8 3 25 -4 37 -15 15
-14 30 -19 42 -15 15 5 19 3 14 -9 -4 -10 0 -13 13 -10 10 3 21 0 25 -6 3 -6
3 -10 -2 -9 -7 3 -13 -5 -13 -16 0 -2 18 0 40 4 47 9 59 1 28 -17 l-23 -14 24
7 c16 4 21 3 17 -5 -5 -7 -1 -9 9 -5 11 5 14 2 9 -10 -3 -9 -11 -16 -17 -16
-6 0 -7 -3 -4 -6 4 -4 18 1 31 10 31 20 53 21 53 2 0 -7 -7 -12 -16 -9 -20 4
-48 -13 -38 -24 5 -4 12 -1 17 7 5 8 12 11 16 7 4 -3 1 -13 -5 -21 -10 -12 -9
-14 7 -9 12 3 22 -1 25 -11 4 -10 1 -16 -8 -16 -20 0 -19 -36 1 -44 22 -9 32
3 14 14 -12 8 -9 10 11 10 19 0 26 -5 25 -17 0 -10 5 -17 13 -15 7 1 19 -2 25
-8 16 -13 26 -3 19 18 -4 12 -1 11 10 -3 9 -11 12 -26 8 -35 -4 -8 -6 -25 -5
-38 1 -18 -1 -20 -13 -10 -8 6 -12 17 -9 24 2 6 -2 20 -10 31 -14 17 -15 17
-6 -2 4 -11 7 -30 7 -42 -1 -12 2 -20 6 -17 5 3 9 -2 9 -10 0 -9 6 -16 13 -16
24 0 36 -21 27 -46 -8 -20 -6 -24 8 -24 15 0 15 -2 2 -10 -20 -13 -4 -13 21 1
16 8 18 13 8 25 -6 8 -8 14 -5 14 13 0 36 -28 46 -54 5 -14 15 -24 22 -22 7 1
9 1 5 -2 -4 -2 -3 -10 4 -18 7 -8 9 -18 5 -21 -4 -4 -11 -2 -15 6 -6 10 -10 8
-15 -6 -8 -19 -5 -29 5 -26 19 6 -9 -45 -39 -71 -20 -17 -54 -51 -76 -75 -23
-24 -48 -51 -57 -60 -9 -9 -22 -27 -29 -41 -15 -28 -14 -110 1 -125 5 -5 9
-31 9 -57 0 -27 7 -63 16 -80 9 -17 14 -44 12 -59 -3 -16 -1 -29 4 -29 5 0 5
-12 2 -26 -4 -15 -2 -29 4 -33 7 -4 18 -54 26 -111 8 -58 19 -106 25 -108 6
-2 11 -8 11 -13 0 -6 -4 -7 -10 -4 -5 3 -10 -1 -10 -9 0 -8 5 -18 11 -22 6 -3
9 -17 6 -30 -2 -14 0 -21 6 -17 6 4 8 -3 4 -17 -8 -29 10 -122 25 -131 6 -4 8
-14 5 -24 -4 -9 1 -27 10 -41 10 -16 12 -29 6 -35 -10 -10 -5 -81 6 -75 4 3 5
-11 3 -30 -3 -22 1 -41 11 -52 8 -10 17 -50 22 -97 4 -44 8 -89 9 -100 1 -11
8 -40 15 -65 21 -70 42 -192 41 -229 0 -19 4 -37 10 -41 7 -4 14 -23 16 -41 2
-19 5 -46 7 -61 2 -16 4 -46 5 -68 1 -25 7 -40 15 -40 8 0 11 -14 9 -46 -3
-32 1 -50 13 -64 12 -13 14 -23 7 -36 -6 -11 -5 -29 3 -53 8 -20 18 -70 25
-111 6 -41 17 -106 26 -145 8 -38 14 -80 14 -92 0 -12 5 -25 11 -29 6 -3 8
-17 5 -30 -4 -14 -2 -24 4 -24 6 0 9 -4 5 -9 -3 -5 -1 -12 3 -15 5 -3 9 -19
10 -36 1 -36 19 -63 38 -56 16 6 12 -20 -6 -37 -7 -6 -10 -7 -7 -1 7 13 -19
54 -35 54 -6 0 -4 -8 5 -18 22 -24 22 -36 0 -28 -17 5 -17 5 -1 -6 15 -11 6
-18 -65 -51 -45 -22 -154 -69 -242 -104 -195 -79 -327 -133 -510 -208 -77 -31
-167 -67 -200 -79 -61 -23 -394 -159 -430 -176 -11 -5 -72 -30 -135 -55 -63
-25 -129 -52 -147 -60 -17 -8 -34 -15 -37 -15 -6 0 -186 -73 -261 -105 -16 -7
-91 -38 -165 -68 -174 -71 -191 -78 -215 -88 -11 -5 -76 -32 -145 -60 -69 -28
-163 -67 -210 -86 -47 -19 -95 -35 -106 -35 l-22 -1 22 -41 c22 -44 23 -44 90
-33 11 2 22 9 24 15 2 7 8 12 13 12 6 0 7 -4 4 -10 -14 -23 15 -8 38 19 14 17
27 27 30 24 10 -10 117 -12 117 -2 0 5 7 9 15 9 8 0 15 6 15 13 0 9 2 9 8 0 6
-9 17 -10 41 -3 18 5 36 9 40 8 3 0 9 1 14 2 4 1 10 3 15 4 4 1 21 9 39 19 30
16 32 16 36 -1 4 -16 5 -16 6 1 0 9 9 17 19 17 10 0 24 6 31 13 11 10 13 10 7
0 -4 -8 -1 -13 8 -13 8 0 16 5 18 10 2 6 25 11 51 12 26 0 47 4 47 8 0 4 13 7
29 8 16 0 41 8 54 17 13 8 32 13 41 9 9 -3 16 -2 16 3 0 5 12 10 28 11 46 4
75 9 127 22 28 7 61 14 73 15 13 2 32 11 42 20 10 9 25 15 32 13 7 -3 29 2 48
10 22 9 36 10 38 4 3 -10 11 -10 50 4 24 9 50 14 99 18 24 2 48 8 55 13 7 5
25 9 41 8 15 -1 25 0 22 3 -7 8 28 31 48 32 9 0 17 -6 17 -12 0 -8 3 -9 8 -3
15 21 54 37 62 25 5 -8 10 -7 18 3 8 9 30 14 61 13 27 -1 49 3 48 8 -1 6 6 12
17 14 11 2 16 0 12 -7 -11 -17 10 -13 24 4 7 8 16 12 21 9 5 -3 9 0 9 5 0 15
27 14 33 -1 3 -8 6 -5 6 5 1 10 6 15 11 12 6 -3 13 1 16 9 6 17 44 22 44 7 0
-11 154 26 193 46 15 8 35 12 43 9 7 -3 14 0 14 6 0 6 6 5 17 -3 9 -8 14 -9
10 -3 -4 7 2 14 16 18 12 3 23 2 25 -3 2 -5 16 -2 32 6 17 8 44 15 62 15 18 0
38 4 43 8 6 3 24 8 40 9 17 2 41 4 54 5 13 1 28 8 35 16 7 9 32 16 65 18 30 1
58 7 62 14 4 6 32 11 61 12 30 1 62 7 70 13 8 7 18 10 21 6 4 -3 7 -1 7 5 0 7
5 12 11 12 6 0 8 -9 4 -21 -5 -15 -4 -19 4 -15 6 4 12 0 12 -11 4 -41 17 137
30 375 l13 254 54 46 c196 167 190 154 191 400 l1 172 -75 330 c-55 245 -82
390 -105 567 -17 131 -44 311 -60 399 -26 147 -34 171 -79 260 -28 55 -64 117
-81 139 l-30 40 8 315 c5 173 7 317 5 320 -2 2 -9 -2 -14 -10 -8 -12 -9 -10
-4 7 3 13 1 25 -8 30 -7 4 -23 23 -36 41 -12 18 -27 30 -32 26 -5 -3 -8 -1 -7
4 2 5 -53 71 -122 145 -98 106 -129 134 -145 130 -11 -3 -17 -2 -12 3 9 9
-100 57 -112 49 -5 -2 -14 2 -21 9 -6 8 -26 18 -43 22 -18 4 -48 15 -67 25
-19 11 -39 19 -45 18 -5 0 -4 -3 3 -6z m352 -185 c0 -4 -8 -7 -17 -5 -10 1
-18 7 -18 12 0 6 4 9 9 7 5 -2 6 5 2 15 -5 16 -4 15 9 -1 8 -11 15 -23 15 -28z
m150 -152 c8 -11 10 -17 3 -13 -6 4 -13 1 -16 -5 -2 -7 -4 0 -4 15 0 15 0 27
1 25 1 -2 8 -12 16 -22z m-33 -16 c1 -11 -2 -22 -6 -24 -6 -4 -7 26 -2 42 3 8
7 -1 8 -18z m43 -30 c0 -5 -4 -10 -10 -10 -5 0 -10 5 -10 10 0 6 5 10 10 10 6
0 10 -4 10 -10z m-30 -14 c0 -3 -4 -8 -10 -11 -5 -3 -10 -1 -10 4 0 6 5 11 10
11 6 0 10 -2 10 -4z m100 -20 c0 -2 -8 -10 -17 -17 -16 -13 -17 -12 -4 4 13
16 21 21 21 13z m-138 -3728 c-7 -7 -12 -8 -12 -2 0 14 12 26 19 19 2 -3 -1
-11 -7 -17z"/>
<path d="M7475 8309 c-4 -6 -5 -12 -2 -15 2 -3 7 2 10 11 7 17 1 20 -8 4z"/>
<path d="M7420 8281 c0 -6 5 -13 10 -16 6 -3 10 1 10 9 0 9 -4 16 -10 16 -5 0
-10 -4 -10 -9z"/>
<path d="M7545 8080 c3 -5 8 -10 11 -10 2 0 4 5 4 10 0 6 -5 10 -11 10 -5 0
-7 -4 -4 -10z"/>
<path d="M7550 8029 c0 -5 5 -7 10 -4 6 3 10 8 10 11 0 2 -4 4 -10 4 -5 0 -10
-5 -10 -11z"/>
<path d="M2887 7413 c-37 -27 -131 -94 -209 -151 -164 -117 -412 -353 -518
-492 -94 -125 -316 -507 -365 -630 -195 -487 -202 -509 -265 -781 l-61 -264 6
-315 c8 -381 16 -464 51 -550 15 -36 31 -68 36 -71 5 -3 8 -10 7 -15 -1 -5 -1
-16 0 -24 1 -12 4 -12 15 3 12 15 14 16 20 2 3 -8 13 -15 23 -15 14 0 11 7
-15 31 -18 17 -32 33 -30 35 9 8 48 -10 48 -22 0 -8 6 -14 14 -14 8 0 17 -6
19 -12 4 -10 8 -10 15 1 7 9 12 10 16 2 4 -6 2 -11 -3 -11 -6 0 -11 -5 -11
-11 0 -6 9 -8 21 -4 14 5 19 4 15 -4 -4 -7 -1 -9 7 -5 9 3 22 -4 31 -17 12
-18 19 -20 27 -12 15 15 47 -1 57 -28 8 -19 8 -19 29 1 12 11 24 16 28 11 3
-5 -1 -11 -7 -14 -9 -3 -6 -8 7 -13 11 -4 41 -29 68 -56 l47 -49 0 35 c0 19 5
38 10 41 6 3 10 0 10 -7 0 -10 3 -9 11 2 8 12 9 10 4 -7 -3 -13 -3 -32 0 -43
8 -24 35 -27 35 -3 0 13 3 14 12 5 9 -9 9 -15 0 -24 -16 -16 -15 -29 1 -25 6
1 11 -3 10 -10 -2 -8 4 -10 15 -6 15 6 14 3 -3 -17 l-20 -23 22 12 c20 10 23
8 34 -29 7 -22 18 -45 26 -51 16 -14 18 -33 1 -23 -7 4 -8 3 -4 -5 4 -6 12 -9
17 -5 6 3 10 0 8 -7 -4 -30 1 -43 11 -33 7 7 -5 42 -38 108 -26 53 -50 94 -53
91 -3 -3 -6 9 -6 26 0 17 -4 34 -9 37 -6 4 -11 16 -11 27 -2 20 -9 46 -143
465 -131 412 -139 440 -133 456 3 8 49 178 103 376 l97 360 129 140 c337 367
586 633 595 636 5 2 9 -4 9 -13 0 -10 16 -180 35 -379 19 -198 35 -381 36
-406 2 -42 -5 -56 -111 -215 -84 -125 -129 -205 -172 -304 l-58 -134 0 -196
c0 -108 7 -293 15 -411 8 -118 15 -233 16 -255 l1 -40 9 41 c13 57 38 79 73
63 14 -7 26 -16 26 -21 0 -4 9 -3 19 4 15 9 23 9 37 -3 11 -9 15 -9 10 -1 -4
7 -2 12 7 12 8 0 18 -8 22 -17 7 -17 8 -16 15 2 8 19 9 19 9 1 1 -11 4 -16 8
-12 5 4 13 -12 20 -36 10 -36 11 -17 7 124 -3 135 0 194 16 302 17 111 81 370
95 384 6 6 12 -54 50 -458 67 -698 74 -770 85 -789 5 -11 10 -61 11 -113 1
-51 7 -149 15 -218 8 -69 14 -146 14 -172 0 -26 5 -50 10 -53 7 -4 9 3 5 22
-3 15 -3 23 1 16 3 -7 11 -10 19 -7 7 3 17 -1 21 -8 6 -9 11 -4 15 17 l7 30 1
-35 c1 -23 4 -30 10 -22 5 8 10 -15 14 -60 4 -40 9 -84 12 -98 5 -22 4 -23 -5
-5 -9 18 -10 17 -5 -5 3 -14 8 -40 12 -58 5 -28 13 -36 34 -34 4 1 10 -15 14
-36 4 -20 11 -42 17 -49 5 -7 7 -21 3 -33 -4 -14 -2 -20 6 -18 8 2 14 -12 16
-37 3 -22 14 -55 25 -73 11 -18 17 -39 14 -47 -3 -8 -2 -15 2 -15 4 -1 18 -10
32 -21 23 -19 23 -21 6 -31 -16 -9 -16 -11 0 -29 10 -11 15 -28 11 -44 -3 -19
2 -34 19 -52 18 -19 21 -29 13 -39 -7 -9 -4 -26 12 -61 12 -26 22 -61 23 -78
1 -16 4 -32 8 -35 4 -3 14 -22 23 -43 11 -26 12 -37 4 -37 -7 0 -4 -8 6 -20
15 -17 16 -24 7 -45 -11 -24 -6 -30 21 -26 8 1 10 -13 8 -41 -1 -10 3 -18 8
-18 6 0 11 -21 11 -49 0 -36 4 -51 16 -55 9 -4 14 -9 11 -13 -4 -3 -2 -12 4
-19 6 -8 9 -20 6 -27 -3 -7 1 -21 9 -31 9 -13 10 -24 3 -37 -6 -13 -6 -19 1
-19 5 0 10 -9 10 -20 0 -11 5 -20 11 -20 6 0 9 -9 6 -20 -3 -10 1 -27 9 -37 7
-10 14 -28 14 -40 0 -13 6 -23 13 -23 8 0 8 -3 -2 -9 -11 -7 -10 -10 5 -14 16
-4 17 -5 2 -6 -10 0 -18 -6 -18 -12 0 -6 9 -9 20 -6 11 3 18 1 15 -3 -3 -5 1
-10 7 -13 7 -2 1 -8 -13 -12 -18 -4 -40 0 -65 12 -22 10 -48 17 -59 14 -12 -2
16 -15 70 -32 50 -16 96 -27 103 -24 7 3 11 1 8 -3 -7 -12 120 -55 136 -46 7
4 9 3 5 -2 -5 -5 46 -27 115 -50 68 -23 242 -82 388 -132 l265 -90 183 -6 182
-7 -1 1268 c0 1249 -1 1267 -18 1183 -10 -47 -30 -107 -44 -133 -50 -92 -100
-110 -162 -56 -20 18 -38 30 -40 27 -2 -2 -5 -94 -6 -203 -4 -436 -43 -740
-102 -796 -18 -17 -31 -20 -69 -16 -57 5 -75 22 -72 67 1 19 5 100 8 180 4 80
11 192 16 250 5 58 12 146 14 195 11 184 18 301 21 340 6 68 19 279 19 305 1
16 10 29 27 37 l26 12 -1 182 c-1 149 2 183 13 187 11 4 10 7 -5 13 -14 6 -10
8 16 8 39 1 190 -33 221 -49 31 -17 22 2 -29 56 -261 281 -350 382 -365 417
-24 54 -517 1280 -572 1422 -144 371 -234 575 -285 645 -30 41 -57 77 -60 80
-5 4 -307 416 -424 578 -17 24 -45 60 -63 80 -18 20 -40 52 -50 70 -10 17 -23
32 -29 32 -6 0 -41 -21 -77 -47z m417 -2588 c3 -9 0 -12 -9 -9 -7 3 -16 12
-19 19 -3 9 0 12 9 9 7 -3 16 -12 19 -19z m140 -114 c-2 -3 -10 1 -16 7 -7 7
-19 12 -27 12 -16 0 -51 28 -51 41 0 4 22 -7 49 -24 27 -18 47 -34 45 -36z
m598 -351 c5 0 7 7 4 16 -3 9 -2 12 5 9 6 -4 8 -20 4 -38 -4 -23 -3 -28 4 -18
28 42 36 -164 8 -217 -10 -18 -22 -30 -28 -27 -5 4 -8 1 -7 -7 5 -22 -68 -51
-109 -43 -25 4 -32 9 -23 15 7 4 20 5 29 2 14 -5 13 -3 -1 11 -18 18 -15 41 9
65 12 12 17 34 14 55 0 4 3 7 8 7 12 0 43 97 44 137 1 20 4 28 9 20 5 -7 8 -1
9 18 1 17 3 22 6 13 2 -10 9 -18 15 -18z m-2457 -150 c3 -5 1 -10 -4 -10 -6 0
-11 5 -11 10 0 6 2 10 4 10 3 0 8 -4 11 -10z m1989 -26 c13 -34 -5 -166 -21
-150 -4 4 -6 81 -4 151 1 20 17 19 25 -1z m466 -232 c63 -6 94 -16 194 -65
l119 -57 -7 -43 c-3 -23 -11 -62 -17 -87 -5 -25 -44 -214 -85 -420 -41 -206
-81 -402 -89 -435 l-14 -60 2 48 c1 26 -1 47 -4 47 -4 0 -7 217 -7 483 -1 265
-1 495 -2 510 0 16 -5 27 -10 25 -20 -6 -101 -200 -120 -286 -32 -146 -34
-205 -11 -322 32 -160 33 -155 -44 -170 -36 -7 -68 -16 -71 -21 -3 -5 -12
-107 -20 -227 -15 -233 -20 -273 -38 -284 -17 -11 -24 21 -18 80 3 37 1 52 -7
52 -7 0 -9 5 -5 11 6 11 6 1094 0 1152 -2 19 1 27 13 27 11 0 12 3 4 8 -14 9
-6 24 22 41 13 7 41 9 80 6 33 -3 94 -9 135 -13z m-863 -814 c-3 -8 -6 -5 -6
6 -1 11 2 17 5 13 3 -3 4 -12 1 -19z m82 -348 c0 -9 -6 -4 -14 10 -19 33 -19
49 0 24 8 -10 14 -26 14 -34z m54 -94 c8 -21 -3 -27 -19 -11 -18 17 -18 25 0
25 8 0 16 -6 19 -14z"/>
<path d="M4118 3913 c7 -3 16 -2 19 1 4 3 -2 6 -13 5 -11 0 -14 -3 -6 -6z"/>
<path d="M7861 4444 c0 -11 3 -14 6 -6 3 7 2 16 -1 19 -3 4 -6 -2 -5 -13z"/>
<path d="M7120 4198 c0 -5 -15 -8 -32 -8 -78 0 -398 -79 -468 -115 -16 -8 -35
-15 -42 -15 -7 0 -24 -9 -37 -19 l-24 -19 27 -51 c14 -29 24 -56 21 -61 -4 -6
-1 -10 4 -10 6 0 11 -6 11 -14 0 -7 9 -16 21 -19 13 -4 18 -10 13 -18 -12 -19
68 -5 244 45 231 65 383 121 404 148 20 26 36 76 40 128 l3 35 -92 0 c-51 0
-93 -3 -93 -7z"/>
<path d="M1594 4080 c2 -19 5 -42 6 -50 1 -10 4 -7 10 7 6 15 5 31 -5 50 l-15
28 4 -35z"/>
<path d="M1617 4021 c-4 -17 -3 -21 5 -13 5 5 8 16 6 23 -3 8 -7 3 -11 -10z"/>
<path d="M2022 3950 c0 -14 2 -19 5 -12 2 6 2 18 0 25 -3 6 -5 1 -5 -13z"/>
<path d="M1645 3930 c-3 -5 -1 -10 4 -10 6 0 11 5 11 10 0 6 -2 10 -4 10 -3 0
-8 -4 -11 -10z"/>
<path d="M1670 3855 c0 -5 5 -17 10 -25 5 -8 10 -10 10 -5 0 6 -5 17 -10 25
-5 8 -10 11 -10 5z"/>
<path d="M6355 3722 c-113 -45 -258 -135 -392 -244 l-92 -74 -67 63 c-37 35
-71 60 -74 56 -8 -9 62 -877 80 -998 7 -44 18 -93 25 -110 7 -16 19 -48 26
-70 6 -22 15 -42 20 -45 4 -3 24 -41 43 -85 73 -160 81 -175 93 -170 7 2 13 0
13 -4 0 -5 -6 -11 -12 -14 -22 -7 0 -20 24 -14 59 15 59 9 13 286 -39 236 -45
308 -25 296 5 -3 16 5 24 17 9 12 16 19 16 14 0 -5 6 -3 13 3 8 6 16 8 20 5 3
-3 16 0 28 7 13 7 37 16 54 20 16 4 55 17 85 29 30 12 78 28 105 36 28 9 73
24 100 34 28 10 68 24 90 31 22 6 47 14 55 17 23 8 23 8 55 17 17 4 35 12 41
17 7 5 26 10 44 13 17 2 37 8 43 13 7 5 39 17 72 26 33 10 74 23 90 29 17 6
35 13 40 14 26 6 174 57 202 69 17 8 37 14 45 14 7 1 24 10 38 21 21 18 25 31
28 93 4 82 -13 474 -20 481 -3 3 -72 -20 -154 -51 -341 -128 -586 -214 -613
-214 -20 0 -2 17 24 23 11 3 2 5 -20 6 -40 2 -40 2 -15 16 23 13 23 14 4 15
-12 0 -21 7 -21 15 0 8 4 15 8 15 4 0 5 9 2 20 -3 11 -10 20 -15 20 -6 0 -8 7
-4 15 3 8 1 15 -4 15 -6 0 -10 5 -10 11 0 5 4 8 9 4 6 -3 5 8 -1 27 -5 18 -12
62 -14 98 -2 36 -5 71 -6 78 -2 17 -64 14 -113 -6z"/>
<path d="M2226 3677 c3 -10 9 -15 12 -12 3 3 0 11 -7 18 -10 9 -11 8 -5 -6z"/>
<path d="M3072 3050 c0 -19 2 -27 5 -17 2 9 2 25 0 35 -3 9 -5 1 -5 -18z"/>
<path d="M3082 2980 c0 -14 2 -19 5 -12 2 6 2 18 0 25 -3 6 -5 1 -5 -13z"/>
<path d="M3190 2811 c0 -6 4 -13 10 -16 6 -3 7 1 4 9 -7 18 -14 21 -14 7z"/>
<path d="M3467 1493 c-3 -5 6 -9 20 -10 19 -1 22 1 12 8 -17 11 -26 11 -32 2z"/>
<path d="M3587 1486 c-16 -12 -15 -14 13 -26 17 -7 33 -10 37 -7 3 3 -7 9 -21
13 -21 5 -24 9 -15 20 14 17 9 17 -14 0z"/>
</g>
</svg>
